<?xml version="1.0" encoding="utf-8"?>
<!-- Generator: Adobe Illustrator 19.0.0, SVG Export Plug-In . SVG Version: 6.00 Build 0)  -->
<svg version="1.1" id="Layer_1" xmlns="http://www.w3.org/2000/svg" xmlns:xlink="http://www.w3.org/1999/xlink" x="0px" y="0px"
	 viewBox="0 0 96 96" style="enable-background:new 0 0 96 96;" xml:space="preserve">
<style type="text/css">
	.st0{fill:#4F5D73;}
	.st1{fill:#C75C5C;}
	.st2{fill:#F5CF87;}
	.st3{fill:#76C2AF;}
	.st4{fill:#465162;}
	.st5{fill:#A65050;}
	.st6{fill:#65A192;}
	.st7{fill:#E0E0D1;}
	.st8{fill:#3F4755;}
	.st9{fill:#BAB9AE;}
	.st10{fill:#77B3D4;}
</style>
<g id="XMLID_1_">
	<path id="XMLID_3_" class="st0" d="M48,15.5c17.9,0,32.5,14.6,32.5,32.5S65.9,80.5,48,80.5c-17.9,0-32.5-14.6-32.5-32.5
		S30.1,15.5,48,15.5"/>
	<path id="XMLID_4_" class="st1" d="M31.7,52.1c0,1.1-0.9,2-2,2c-1.1,0-2-0.9-2-2v-2c0-1.1,0.9-2,2-2c1.1,0,2,0.9,2,2V52.1"/>
	<path id="XMLID_5_" class="st2" d="M39.9,43.9c0,1.1-0.9,2-2,2s-2-0.9-2-2v-2c0-1.1,0.9-2,2-2s2,0.9,2,2V43.9"/>
	<path id="XMLID_6_" class="st2" d="M60.2,43.9c0,1.1-0.9,2-2,2s-2-0.9-2-2v-2c0-1.1,0.9-2,2-2s2,0.9,2,2V43.9"/>
	<path id="XMLID_7_" class="st3" d="M64.3,52.1c0,1.1,0.9,2,2,2s2-0.9,2-2v-2c0-1.1-0.9-2-2-2s-2,0.9-2,2V52.1"/>
	<path id="XMLID_11_" class="st4" d="M27.7,50.4c0,0.3-0.1,0.7-0.1,1.1c0,1.1,0.2,1.9,0.9,2.2c-0.5-0.4-0.8-1-0.8-1.6v-1.5
		C27.7,50.6,27.7,50.5,27.7,50.4 M51.5,47.6l-0.1,2l13.3,3.7c-0.3-0.3-0.4-0.8-0.4-1.3v-0.9l-11.6-3.3l0,0L51.5,47.6 M44.5,47.6
		l-1.2,0.3l0,0l-11.6,3.2v0.9c0,0.5-0.2,0.9-0.4,1.2l13.2-3.7L44.5,47.6"/>
	<path id="XMLID_12_" class="st5" d="M27.7,50.6v1.5c0,0.7,0.3,1.3,0.8,1.6c0.2,0,0.3,0.1,0.5,0.1c0.4,0,0.9-0.1,1.6-0.3l0.7-0.2
		c0.3-0.3,0.4-0.8,0.4-1.2v-0.9l-1.1,0.3c-0.7,0.2-1.2,0.3-1.6,0.3C28.2,51.7,27.8,51.3,27.7,50.6"/>
	<path id="XMLID_17_" class="st4" d="M68.2,52.8c-0.1,0.3-0.3,0.6-0.6,0.8C67.9,53.5,68.1,53.2,68.2,52.8 M27.6,52.2
		C27.6,52.2,27.6,52.3,27.6,52.2L27.6,52.2 M68.3,51.4v0.8C68.3,52,68.3,51.7,68.3,51.4 M27.6,51v1.2c0-0.2,0-0.5,0-0.7
		C27.6,51.4,27.6,51.2,27.6,51"/>
	<path id="XMLID_20_" class="st6" d="M68.3,51c0,0.1,0,0.2,0,0.3c0,0,0,0.1,0,0.1V51 M68.3,50.3c-0.1,0.9-0.4,1.4-1.4,1.4
		c-0.4,0-0.9-0.1-1.6-0.3l-1-0.3v0.9c0,0.5,0.2,0.9,0.4,1.3l0.6,0.2c0.7,0.2,1.2,0.3,1.6,0.3c0.3,0,0.5-0.1,0.7-0.2
		c0.3-0.2,0.5-0.5,0.6-0.8c0.1-0.4,0.1-0.9,0.1-1.5C68.3,51,68.3,50.6,68.3,50.3"/>
	<path id="XMLID_21_" class="st7" d="M48,46.6l17.3,4.9c2.9,0.9,3-0.4,3-2.4v1.2c0-2,0.1-3.5-1.8-4.6L48,36.8l-18.6,8.8
		c-1.8,1.1-1.8,2.5-1.8,4.6V49c0,2,0.1,3.4,3,2.4L48,46.6"/>
	<path id="XMLID_22_" class="st7" d="M68.3,49.4L68.3,49.4V49C68.3,49.1,68.3,49.2,68.3,49.4z"/>
	<path id="XMLID_23_" class="st7" d="M68.3,49.5v0.7C68.3,49.9,68.3,49.7,68.3,49.5z"/>
	<polyline id="XMLID_24_" class="st8" points="44.5,47.6 43.3,47.9 43.3,47.9 44.5,47.6 44.5,47.6 	"/>
	<polyline id="XMLID_25_" class="st9" points="44.2,38.7 42.9,39.3 43.3,47.9 44.5,47.6 44.2,38.7 	"/>
	<polyline id="XMLID_26_" class="st8" points="51.5,47.6 51.5,47.6 52.7,47.9 52.7,47.9 51.5,47.6 	"/>
	<polyline id="XMLID_27_" class="st9" points="51.8,38.7 51.5,47.6 52.7,47.9 53.1,39.3 51.8,38.7 	"/>
	<path id="XMLID_28_" class="st7" d="M51,59.8c0,1.6-0.3,2.9-2,2.9h-2c-1.7,0-2-1.3-2-2.9l-1-27.3c0-1.6,2.3-6.9,4.1-6.9
		s4.1,5.3,4.1,6.9L51,59.8"/>
	<path id="XMLID_31_" class="st4" d="M50,65v2l8.1,3.2c0.3,0.1,0.6,0.2,0.8,0.2c1.1,0,1.3-1.3,1.3-1.3c0-0.7,0-1.3,0-1.9
		c-0.1,0.4-0.4,1.1-1.2,1.1c-0.2,0-0.5,0-0.8-0.2L50,65 M46,65l-8.1,3.1c-0.3,0.1-0.6,0.2-0.8,0.2c-0.9,0-1.2-0.9-1.2-1.2
		c-0.1,0.6,0,1.2,0,1.9c0,0,0.1,1.3,1.3,1.3c0.2,0,0.5,0,0.8-0.2l8.1-3.1V65"/>
	<path id="XMLID_32_" class="st7" d="M59.2,63L48,56.1L36.8,63c-1.2,0.9-1,2.3-1,4c0,0,0.2,1.8,2,1.1L48,64.3l10.2,4
		c1.8,0.7,2-1.1,2-1.1C60.2,65.4,60.3,64,59.2,63"/>
	<path id="XMLID_33_" class="st4" d="M48,66.3l-2,0.8v0.2c0,1.1,0.9,2,2,2s2-0.9,2-2v-0.2L48,66.3"/>
	<polyline id="XMLID_34_" class="st8" points="48,64.3 46,65 46,67.1 48,66.3 50,67.1 50,65 48,64.3 	"/>
	<path id="XMLID_35_" class="st9" d="M48,60.2c-1.1,0-2,0.9-2,2V65l2-0.8l2,0.8v-2.8C50,61.1,49.1,60.2,48,60.2"/>
	<path id="XMLID_36_" class="st7" d="M50,65.3c0,1.1-0.9,2-2,2s-2-0.9-2-2v-5.1c0-1.1,0.9-2,2-2s2,0.9,2,2V65.3z"/>
	<path id="XMLID_37_" class="st10" d="M48,31.7c1.2,0,2.2-1.2,2.7-3c-0.8-1.6-1.9-3-2.7-3s-1.9,1.4-2.7,3
		C45.8,30.5,46.8,31.7,48,31.7z"/>
</g>
</svg>
